<svg xmlns="http://www.w3.org/2000/svg" viewBox="0 0 366.75 249.85"><defs><style>.cls-1{fill:#fff;}.cls-2{fill:#f2f2f2;}.cls-3{fill:#ff4a14;}.cls-4{fill:#ffd314;}.cls-5{fill:#00e673;}</style></defs><title>GDPR_page</title><g id="Layer_1" data-name="Layer 1"><rect class="cls-1" x="10.46" y="11.22" width="345.84" height="227.4" rx="6.86" ry="6.86"/><path class="cls-2" d="M17.31,11.22H349.44a6.86,6.86,0,0,1,6.86,6.86V34.88a0,0,0,0,1,0,0H10.46a0,0,0,0,1,0,0V18.08A6.86,6.86,0,0,1,17.31,11.22Z"/><circle class="cls-3" cx="24.03" cy="23.16" r="4.04"/><circle class="cls-4" cx="37.17" cy="23.16" r="4.04"/><circle class="cls-5" cx="50.3" cy="23.16" r="4.04"/><circle class="cls-3" cx="178.28" cy="132.79" r="47.53"/><path class="cls-1" d="M145.67,131.58c0-4.94,3.81-8,8.48-8a7.17,7.17,0,0,1,6.77,4l-3.93,2a3.21,3.21,0,0,0-2.84-1.92,3.86,3.86,0,0,0,0,7.72,4.52,4.52,0,0,0,2.4-.69v-.55h-2.86v-4.07h7.51v6.31a9.17,9.17,0,0,1-7,3.12C149.48,139.56,145.67,136.51,145.67,131.58Z"/><path class="cls-1" d="M163.28,139.28V123.86h6.89c4.85,0,8.46,2.78,8.46,7.7s-3.61,7.72-8.44,7.72Zm10.61-7.72a3.37,3.37,0,0,0-3.7-3.63H168v7.28h2.22A3.56,3.56,0,0,0,173.89,131.56Z"/><path class="cls-1" d="M180.29,139.28V123.86h8.23c3.61,0,5.55,2.41,5.55,5.3s-1.94,5.27-5.55,5.27H185v4.85Zm9-10.12c0-.84-.62-1.23-1.41-1.23h-3v2.43h3C188.71,130.36,189.33,130,189.33,129.16Z"/><path class="cls-1" d="M204.08,139.28,202,134.43h-1.68v4.85H195.6V123.86h8.23c3.6,0,5.54,2.41,5.54,5.3a5,5,0,0,1-2.77,4.67l2.8,5.45Zm.56-10.15c0-.83-.74-1.2-1.53-1.2h-2.84v2.43h2.84C203.9,130.36,204.64,130,204.64,129.13Z"/></g></svg>