<svg xmlns="http://www.w3.org/2000/svg" viewBox="0 0 40 40"><defs><style>.cls-1{opacity:0.5;}</style></defs><title>GDPR_page</title><g id="Layer_1" data-name="Layer 1"><path class="cls-1" d="M4.5,23.23V16.75c.17-1.27.29-2.54.53-3.8A3.86,3.86,0,0,1,8.94,9.58c2.31-.13,4.62-.36,6.94-.34,5.16,0,10.32.19,15.47.37A3.72,3.72,0,0,1,35,12.82c.24,1.3.36,2.62.54,3.93v6.48c0,.24-.08.49-.11.73-.15,1.09-.22,2.2-.45,3.27a3.69,3.69,0,0,1-3.13,3.07,12.73,12.73,0,0,1-2,.22c-4.22.11-8.44.25-12.66.24-2.8,0-5.59-.21-8.39-.38A3.81,3.81,0,0,1,5,27.16C4.8,25.86,4.68,24.54,4.5,23.23Zm21.37-3.54L16,14.56V24.8Z"/></g></svg>