<svg xmlns="http://www.w3.org/2000/svg" viewBox="0 0 40 40"><defs><style>.cls-1{opacity:0.5;}</style></defs><title>GDPR_page</title><g id="Layer_1" data-name="Layer 1"><g class="cls-1"><path d="M20,14.93A5.07,5.07,0,1,0,25.07,20,5.06,5.06,0,0,0,20,14.93Z"/><path d="M33.17,14.37a7.41,7.41,0,0,0-2.42-5.49,7.56,7.56,0,0,0-3.25-1.8A7.37,7.37,0,0,0,26,6.83H14.13l-.51,0a7.32,7.32,0,0,0-2.51.72,7.64,7.64,0,0,0-3.59,3.68,7.49,7.49,0,0,0-.66,2.36c0,.16,0,.32-.05.49V25.88c0,.16,0,.32.05.48a7.39,7.39,0,0,0,.89,2.82,7.64,7.64,0,0,0,3.56,3.32,7.4,7.4,0,0,0,2.49.65c.25,0,.49,0,.74,0h11a7.68,7.68,0,0,0,7.3-5.4,7.37,7.37,0,0,0,.34-2.19C33.18,21.85,33.2,18.11,33.17,14.37ZM20,27.1A7.1,7.1,0,1,1,27.1,20,7.12,7.12,0,0,1,20,27.1ZM27.6,13.92a1.53,1.53,0,1,1,1.52-1.52A1.53,1.53,0,0,1,27.6,13.92Z"/></g></g></svg>